<svg width="43" height="42" viewBox="0 0 43 42" fill="none" xmlns="http://www.w3.org/2000/svg">
<path d="M41.0407 16.8747H38.735C38.3296 15.103 37.6328 13.4193 36.7207 11.899L38.4183 10.2153C39.0137 9.62472 39.0137 8.65722 38.4183 8.06667L34.7064 4.38515C34.111 3.7946 33.1355 3.7946 32.54 4.38515L30.9185 6.00603C29.4109 5.06366 27.726 4.34746 25.9524 3.89512V1.52035C25.9524 0.678505 25.2683 0 24.4195 0H19.1747C18.3259 0 17.6418 0.678505 17.6418 1.52035V3.80717C15.8429 4.20924 14.1579 4.90031 12.625 5.79242L10.9275 4.10873C10.332 3.51817 9.35657 3.51817 8.76115 4.10873L5.04925 7.79024C4.45383 8.38079 4.45383 9.34829 5.04925 9.93884L6.68348 11.5597C5.72067 13.0675 5.01124 14.7135 4.55517 16.4852H2.16082C1.31202 16.4852 0.62793 17.1637 0.62793 18.0055V23.2074C0.62793 24.0492 1.31202 24.7277 2.16082 24.7277H4.4665C4.8719 26.4994 5.556 28.1831 6.46814 29.7034L4.77056 31.3871C4.17513 31.9777 4.17513 32.9452 4.77056 33.5357L8.48244 37.2173C9.07786 37.8078 10.0533 37.8078 10.6488 37.2173L12.283 35.5964C13.8032 36.5388 15.4628 37.255 17.2491 37.7073V40.0821C17.2491 40.9239 17.9332 41.6024 18.782 41.6024H24.0268C24.8756 41.6024 25.5597 40.9239 25.5597 40.0821V37.7952C27.3586 37.3932 29.0435 36.7147 30.5764 35.7974L32.274 37.4811C32.8694 38.0717 33.8449 38.0717 34.4403 37.4811L38.1522 33.7996C38.7477 33.2091 38.7477 32.2416 38.1522 31.651L36.518 30.0301C37.4808 28.5223 38.2029 26.8763 38.659 25.1047H41.0533C41.9021 25.1047 42.5862 24.4262 42.5862 23.5843V18.3825C42.5862 17.5406 41.9021 16.8621 41.0533 16.8621L41.0407 16.8747ZM21.5944 30.495C16.2103 30.495 11.827 26.1601 11.827 20.8075C11.827 15.4548 16.1976 11.1199 21.5944 11.1199C26.9912 11.1199 31.3619 15.4548 31.3619 20.8075C31.3619 26.1601 26.9912 30.495 21.5944 30.495Z" fill="#7733FF"/>
<path d="M27.2573 20.8074C27.2573 23.911 24.7236 26.4239 21.5945 26.4239C18.4654 26.4239 15.9316 23.911 15.9316 20.8074C15.9316 17.7039 18.4654 15.1909 21.5945 15.1909C24.7236 15.1909 27.2573 17.7039 27.2573 20.8074Z" fill="#7733FF"/>
</svg>
